<?xml version="1.0" encoding="UTF-8" standalone="no"?>
<svg
   xmlns:dc="http://purl.org/dc/elements/1.1/"
   xmlns:cc="http://creativecommons.org/ns#"
   xmlns:rdf="http://www.w3.org/1999/02/22-rdf-syntax-ns#"
   xmlns:svg="http://www.w3.org/2000/svg"
   xmlns="http://www.w3.org/2000/svg"
   style="fill:#f5f5f5"
   id="svg4"
   version="1.1"
   width="192"
   viewBox="0 0 384 384"
   height="192">
  <metadata
     id="metadata10">
    <rdf:RDF>
      <cc:Work
         rdf:about="">
        <dc:format>image/svg+xml</dc:format>
        <dc:type
           rdf:resource="http://purl.org/dc/dcmitype/StillImage" />
        <dc:title></dc:title>
      </cc:Work>
    </rdf:RDF>
  </metadata>
  <defs
     id="defs8" />
  <path
     style="stroke-width:8"
     id="path2"
     d="m 192,192 m -176,0 a 176,176 0 1 1 352,0 176,176 0 1 1 -352,0" />
  <path
     style="fill:#4d6697;fill-opacity:1;stroke:none;stroke-width:10.26666641"
     id="path2-7"
     d="m 191.99999,89.333337 c -56.67199,0 -102.666654,45.994653 -102.666654,102.666653 0,56.672 45.994664,102.66667 102.666654,102.66667 56.672,0 102.66667,-45.99467 102.66667,-102.66667 0,-56.672 -45.99467,-102.666653 -102.66667,-102.666653 z M 109.86667,191.99999 c 0,-45.37866 36.75466,-82.13333 82.13332,-82.13333 18.99334,0 36.44667,6.468 50.30667,17.35067 L 127.21734,242.30666 c -10.88267,-13.86 -17.35067,-31.31333 -17.35067,-50.30667 z m 82.13332,82.13334 c -18.99333,0 -36.44666,-6.468 -50.30666,-17.35067 L 256.78266,141.69333 c 10.88267,13.86 17.35067,31.31333 17.35067,50.30666 0,45.37867 -36.75467,82.13334 -82.13334,82.13334 z" />
</svg>
