<?xml version="1.0" encoding="UTF-8" standalone="no"?>
<svg
   xmlns:dc="http://purl.org/dc/elements/1.1/"
   xmlns:cc="http://creativecommons.org/ns#"
   xmlns:rdf="http://www.w3.org/1999/02/22-rdf-syntax-ns#"
   xmlns:svg="http://www.w3.org/2000/svg"
   xmlns="http://www.w3.org/2000/svg"
   style="fill:#f5f5f5"
   id="svg4"
   version="1.1"
   width="192"
   viewBox="0 0 384 384"
   height="192">
  <metadata
     id="metadata10">
    <rdf:RDF>
      <cc:Work
         rdf:about="">
        <dc:format>image/svg+xml</dc:format>
        <dc:type
           rdf:resource="http://purl.org/dc/dcmitype/StillImage" />
        <dc:title></dc:title>
      </cc:Work>
    </rdf:RDF>
  </metadata>
  <defs
     id="defs8" />
  <path
     style="stroke-width:8"
     id="path2"
     d="m 192,192 m -176,0 a 176,176 0 1 1 352,0 176,176 0 1 1 -352,0" />
  <path
     style="fill:#4d6697;fill-opacity:1;stroke:none;stroke-width:10.26666641"
     id="path4"
     d="M 274.13333,89.333332 H 109.86666 c -11.293325,0 -20.430665,9.24 -20.430665,20.533338 l -0.10266,184.8 L 130.39999,253.6 h 143.73334 c 11.29333,0 20.53333,-9.24 20.53333,-20.53333 v -123.2 c 0,-11.293338 -9.24,-20.533338 -20.53333,-20.533338 z M 253.6,212.53333 H 130.4 V 192 h 123.2 z m 0,-30.8 H 130.4 V 161.2 h 123.2 z m 0,-30.8 H 130.4 V 130.4 h 123.2 z" />
</svg>
